<svg width="24" height="24" viewBox="0 0 24 24" fill="none" xmlns="http://www.w3.org/2000/svg">
<path fill-rule="evenodd" clip-rule="evenodd" d="M15.2283 5.80964C15.2065 5.85049 15.178 5.90404 15.1513 5.95031L12.8545 9.92838C12.9419 9.97104 13.029 10.0174 13.1157 10.0675C13.2194 10.1274 13.3187 10.1903 13.4136 10.2561L15.7125 6.27432C15.7325 6.23969 15.7617 6.19022 15.7868 6.14785L15.7869 6.14771L15.787 6.14752L15.8263 6.08087C15.8599 6.02337 15.8842 5.97926 15.9028 5.94131L15.9112 5.92348C15.867 5.88068 15.7814 5.81164 15.625 5.72131C15.4843 5.64009 15.3963 5.61172 15.3519 5.60189C15.3419 5.61483 15.3287 5.63344 15.3125 5.6596C15.2911 5.6939 15.2695 5.73269 15.2429 5.7824L15.2283 5.80964ZM14.4942 11.3843L17.0115 7.02432C17.0235 7.00355 17.0386 6.97815 17.0556 6.94945L17.0556 6.94943C17.1127 6.85325 17.1917 6.72005 17.2504 6.60009C17.333 6.43106 17.4291 6.18882 17.4318 5.90007C17.438 5.23014 16.9691 4.76526 16.375 4.42227C16.051 4.23522 15.7232 4.11481 15.3928 4.09862C15.0435 4.08152 14.7423 4.18378 14.5012 4.35622C14.2767 4.51682 14.1311 4.71886 14.0388 4.86723C13.9914 4.94355 13.9515 5.0166 13.9211 5.07314L13.8964 5.11943C13.8773 5.15508 13.8651 5.17802 13.8522 5.20031L11.3497 9.53482C10.487 9.49033 9.69534 9.74266 9.04783 10.0841C8.30502 10.4759 7.70375 11.0088 7.32238 11.4529L2.34259 15.3368C2.1459 15.4902 2.03835 15.7314 2.05565 15.9802C2.07295 16.229 2.21282 16.453 2.42884 16.5777L12.8211 22.5777C13.0372 22.7024 13.3011 22.7116 13.5252 22.6022C13.7494 22.4927 13.9044 22.279 13.9389 22.032L14.8126 15.7774C15.0043 15.2315 15.1635 14.4567 15.1363 13.6293C15.1127 12.9077 14.945 12.1057 14.4942 11.3843ZM13.5942 14.4493C13.6281 14.2073 13.6459 13.9459 13.6372 13.6785C13.6158 13.0287 13.441 12.4023 13.0287 11.9136C12.8598 11.7135 12.6439 11.5271 12.3657 11.3665C12.1032 11.2149 11.8487 11.123 11.6048 11.0743C10.9674 10.9472 10.3292 11.1042 9.74755 11.4109C9.504 11.5394 9.27975 11.6894 9.08175 11.8441L13.5942 14.4493ZM7.90798 12.8984L4.14267 15.8351L5.16454 16.4251C5.17224 16.4185 5.1801 16.4121 5.18813 16.4058L7.30416 14.7407C7.62967 14.4846 8.10121 14.5408 8.35735 14.8663C8.6135 15.1918 8.55726 15.6634 8.23174 15.9195L6.56308 17.2326L7.72548 17.9037L8.35048 16.8211C8.55758 16.4624 9.01628 16.3395 9.375 16.5466C9.73372 16.7537 9.85662 17.2124 9.64952 17.5711L9.02452 18.6537L10.1869 19.3248L10.4897 17.2232C10.5488 16.8132 10.929 16.5287 11.339 16.5878C11.749 16.6469 12.0335 17.0271 11.9744 17.4371L11.5904 20.1021C11.589 20.1122 11.5873 20.1223 11.5855 20.1322L12.6073 20.7222L13.2679 15.993L7.90798 12.8984Z" fill="currentColor"/>
</svg>
