<svg width="24" height="24" viewBox="0 0 24 24" fill="none" xmlns="http://www.w3.org/2000/svg">
<path fill-rule="evenodd" clip-rule="evenodd" d="M12 4.25C8.27208 4.25 5.25 7.27208 5.25 11C5.25 14.7279 8.27208 17.75 12 17.75C13.5934 17.75 15.0588 17.1972 16.2132 16.2739L19.4697 19.5303C19.7626 19.8232 20.2374 19.8232 20.5303 19.5303C20.8232 19.2374 20.8232 18.7626 20.5303 18.4697L17.2739 15.2133C18.1972 14.0588 18.75 12.5934 18.75 11C18.75 7.27208 15.7279 4.25 12 4.25ZM6.75 11C6.75 8.1005 9.1005 5.75 12 5.75C14.8995 5.75 17.25 8.1005 17.25 11C17.25 12.4475 16.6653 13.7569 15.7173 14.7074L15.7173 14.7074C14.766 15.6612 13.4524 16.25 12 16.25C9.1005 16.25 6.75 13.8995 6.75 11Z" fill="#9EAAB4"/>
</svg>
